<?xml version="1.0" encoding="utf-8"?>
<!-- Generator: Adobe Illustrator 27.5.0, SVG Export Plug-In . SVG Version: 6.00 Build 0)  -->
<svg version="1.1" id="Capa_2" xmlns="http://www.w3.org/2000/svg" xmlns:xlink="http://www.w3.org/1999/xlink" x="0px" y="0px"
	 viewBox="0 0 2122 2122" style="enable-background:new 0 0 2122 2122;" xml:space="preserve">
<path style="fill:#FFDE55;" d="M1817.252,1579.494l-0.064-0.028c-5.438,1.347-10.926,2.645-16.414,3.842
	c-0.678,0.151-1.355,0.282-2.033,0.431c-7.535,1.654-15.067,3.177-22.595,4.607c-1.377,0.261-2.754,0.536-4.131,0.791
	c-5.937,1.093-11.867,2.05-17.797,3.005c-2.126,0.343-4.255,0.743-6.38,1.068c-0.893,0.138-1.786,0.271-2.68,0.404
	c-7.318,1.093-14.627,2.057-21.929,2.943c-1.209,0.147-2.422,0.336-3.631,0.477c-7.596,0.887-15.177,1.612-22.75,2.28
	c-2.302,0.203-4.61,0.482-6.91,0.664c-0.892,0.07-1.781,0.122-2.674,0.19c-8.22,0.625-16.426,1.132-24.613,1.498
	c-0.534,0.024-1.071,0.059-1.605,0.082c-8.444,0.361-16.866,0.563-25.269,0.653c-1.007,0.011-2.016,0.03-3.023,0.037
	c-8.297,0.057-16.571-0.021-24.823-0.225c-0.947-0.023-1.892-0.05-2.837-0.077c-8.467-0.24-16.913-0.6-25.325-1.112l-1.17-0.077
	c-26.843-1.672-53.392-4.705-79.542-9.062l-0.055-0.01c-43.995-7.334-86.872-18.386-128.171-32.877l0.049,0.033
	c-164.651-57.756-304.2-170.216-389.357-319.968c-32.678-57.523-57.374-120.535-72.391-188.037
	c-74.481-335.167,114.172-670.705,433.482-811.157l-0.263,111.952c-13.567,1.062-24.318,12.317-24.318,26.151
	c0,10.507,6.223,19.525,15.138,23.757c-0.574,1.41-0.905,2.946-0.905,4.563c0,0.898,0.113,1.768,0.298,2.61l0.019,0.06
	c0.236,1.05,0.638,2.027,1.127,2.954l0.484,0.893l0.66,0.889l0.694,0.84l0.75,0.724l0.902,0.745l0.811,0.556l1.122,0.609l0.821,0.38
	c0.454,0.18,0.928,0.313,1.409,0.437l0.621,0.185c-5.601,9.88-14.272,18.93-23.85,26.319c-18.962,14.629-41.937,25.448-59.312,41.42
	c-9.992,9.185-17.666,20.019-22.921,31.65l-0.198,0.425c-0.581,1.302-1.121,2.615-1.639,3.936l-0.485,1.271
	c-1.472,3.917-2.67,7.904-3.591,11.941c-0.153,0.669-0.311,1.337-0.448,2.008c-0.225,1.102-0.427,2.205-0.611,3.312
	c-0.143,0.856-0.262,1.714-0.379,2.573c-0.136,1.003-0.286,2.003-0.388,3.009c-0.175,1.709-0.297,3.42-0.371,5.134
	c-0.035,0.818-0.033,1.635-0.044,2.454c-0.016,1.047-0.024,2.093-0.003,3.14l0.015,0.57c0.021,0.73,0.05,1.458,0.089,2.188
	c0.043,0.818,0.102,1.634,0.17,2.451c0.039,0.487,0.09,0.972,0.138,1.46l0.035,0.373c0.052,0.497,0.08,0.996,0.141,1.493
	c0.076,0.626,0.188,1.247,0.277,1.871c0.082,0.569,0.166,1.137,0.259,1.704c0.115,0.693,0.228,1.385,0.359,2.074
	c0.103,0.534,0.223,1.064,0.335,1.596c0.113,0.535,0.22,1.07,0.344,1.603c0.191,0.825,0.406,1.645,0.624,2.466h-20.282
	c-2.909,0-5.539,1.48-7.436,3.841c-1.644,2.016-2.757,4.691-3.035,7.682c-0.051,0.535-0.076,1.039-0.076,1.574
	c0,1.443,0.235,2.809,0.587,4.112h-9.687c-9.133,0-16.536,7.404-16.536,16.536v422.171c0,9.133,7.403,16.536,16.536,16.536h10.943
	c-1.161,2.096-1.843,4.631-1.843,7.368c0,0.535,0.026,1.071,0.076,1.605c0.632,6.454,5.109,11.492,10.471,11.492h3.158
	c-0.335,1.208-0.557,2.484-0.557,3.833c0,0.486,0.023,0.973,0.069,1.46c0.575,5.868,4.645,10.448,9.52,10.448h243.9
	c2.645,0,5.036-1.346,6.761-3.492c1.495-1.832,2.506-4.265,2.759-6.984c0.046-0.486,0.069-0.946,0.069-1.431
	c0-1.347-0.222-2.622-0.558-3.833h3.159c2.909,0,5.539-1.48,7.436-3.841c1.644-2.015,2.757-4.691,3.035-7.682
	c0.051-0.535,0.076-1.039,0.076-1.574c0-2.725-0.682-5.262-1.84-7.368h10.916c9.132,0,16.536-7.403,16.536-16.536V610.359
	c0-9.132-7.404-16.536-16.536-16.536h-9.661c0.35-1.3,0.586-2.666,0.586-4.112c0-0.535-0.026-1.071-0.076-1.605
	c-0.632-6.454-5.109-11.492-10.471-11.492h-20.293c0.445-1.683,0.881-3.369,1.219-5.069c0.861-4.327,1.378-8.702,1.56-13.09
	c0.181-4.387,0.027-8.788-0.454-13.164c-2.403-21.88-12.974-43.171-30.606-59.378c-13.031-11.979-29.212-21.058-44.488-31.022
	c-5.092-3.322-10.083-6.741-14.824-10.398c-1.48-1.141-2.93-2.332-4.356-3.551l-1.122-0.99c-1.074-0.944-2.134-1.903-3.167-2.887
	l-1.07-1.037c-1.077-1.057-2.129-2.133-3.15-3.23l-0.757-0.812c-1.253-1.379-2.469-2.781-3.619-4.216
	c-2.475-3.089-4.664-6.305-6.535-9.61c3.141-0.653,5.838-2.517,7.574-5.087c1.307-1.935,2.071-4.268,2.071-6.779
	c0-0.891-0.109-1.753-0.292-2.589l-0.14-0.452c-0.134-0.517-0.274-1.033-0.473-1.521c8.916-4.231,15.138-13.25,15.138-23.758
	c0-13.523-10.274-24.572-23.406-26.059l0.264-112.274c0.003-1.124-0.751-2.037-1.771-2.353l-0.06-0.07
	c-234.534-55.927-480.294-7.783-675.166,125.923c-81.811,56.109-154.56,127.402-213.843,212.324l0.04-0.25
	c-2.396,3.43-4.726,6.927-7.077,10.402c-1.328,1.962-2.683,3.896-3.996,5.873c-4.713,7.089-9.318,14.282-13.843,21.553
	c-1.329,2.136-2.628,4.3-3.94,6.451c-3.645,5.973-7.225,12.006-10.741,18.098c-1.112,1.928-2.238,3.842-3.337,5.781
	c-4.483,7.91-8.867,15.908-13.129,24.015c-0.535,1.019-1.048,2.057-1.579,3.079c-3.837,7.37-7.568,14.829-11.217,22.36
	c-0.842,1.738-1.684,3.473-2.516,5.22c-4.072,8.548-8.067,17.161-11.891,25.912c-11.198,25.629-20.97,51.581-29.443,77.748
	l-0.001,0.005c-21.499,66.402-34.309,134.237-38.86,202.039l-0.035,0.506c-0.362,5.448-0.67,10.895-0.927,16.341l-0.038,0.828
	c-0.249,5.4-0.446,10.798-0.59,16.195l-0.021,0.837c-0.14,5.436-0.231,10.868-0.266,16.299l-0.001,0.496
	c-0.293,50.516,3.944,100.796,12.549,150.229l0.139,0.817c0.862,4.925,1.779,9.838,2.728,14.746c0.15,0.776,0.294,1.554,0.446,2.33
	c0.904,4.606,1.855,9.202,2.835,13.792c0.226,1.06,0.448,2.121,0.679,3.181c0.958,4.405,1.956,8.801,2.984,13.19
	c0.286,1.224,0.573,2.447,0.865,3.67c0.303,1.27,0.589,2.543,0.898,3.811c0.731,3.003,1.5,5.996,2.264,8.99
	c0.334,1.308,0.672,2.614,1.012,3.92c1.096,4.211,2.22,8.414,3.38,12.608c0.362,1.306,0.732,2.608,1.099,3.913
	c1.186,4.209,2.395,8.411,3.647,12.602c0.366,1.225,0.744,2.448,1.116,3.671c1.295,4.268,2.609,8.529,3.972,12.776
	c0.341,1.064,0.698,2.123,1.043,3.187c1.433,4.407,2.884,8.808,4.389,13.192c0.24,0.702,0.494,1.398,0.736,2.098
	c8.77,25.335,18.735,50.266,29.878,74.697c0.284,0.624,0.557,1.252,0.843,1.876c1.812,3.947,3.677,7.871,5.55,11.792
	c0.636,1.331,1.257,2.669,1.9,3.996c1.739,3.592,3.523,7.163,5.314,10.732c0.821,1.637,1.632,3.278,2.464,4.91
	c1.718,3.37,3.474,6.722,5.239,10.07c0.955,1.813,1.905,3.626,2.873,5.433c1.728,3.223,3.487,6.431,5.258,9.633
	c1.048,1.896,2.097,3.791,3.161,5.679c1.756,3.119,3.537,6.226,5.334,9.325c1.133,1.953,2.271,3.9,3.419,5.844
	c1.786,3.024,3.589,6.038,5.414,9.041c1.21,1.992,2.434,3.977,3.661,5.959c1.825,2.948,3.66,5.889,5.523,8.816
	c1.274,2.003,2.566,3.995,3.858,5.988c1.869,2.884,3.743,5.765,5.649,8.628c1.339,2.011,2.702,4.007,4.057,6.007
	c1.915,2.824,3.829,5.648,5.78,8.451c1.388,1.994,2.804,3.968,4.21,5.951c1.978,2.789,3.948,5.581,5.961,8.349
	c1.407,1.934,2.849,3.847,4.274,5.771c2.061,2.782,4.108,5.571,6.205,8.329c1.376,1.811,2.789,3.596,4.181,5.396
	c5.619,7.269,11.33,14.476,17.201,21.575l0.098,0.12c1.95,2.356,3.948,4.679,5.925,7.016c1.851,2.188,3.683,4.388,5.558,6.559
	c1.93,2.234,3.901,4.437,5.857,6.653c1.973,2.237,3.934,4.482,5.934,6.699c1.955,2.168,3.946,4.31,5.926,6.459
	c2.053,2.23,4.101,4.465,6.181,6.676c1.97,2.092,3.969,4.163,5.963,6.238c2.151,2.24,4.301,4.478,6.48,6.695
	c1.984,2.02,3.991,4.02,5.998,6.022c2.238,2.232,4.481,4.46,6.747,6.669c2.003,1.953,4.023,3.892,6.048,5.826
	c2.33,2.227,4.67,4.443,7.029,6.646c0.983,0.918,1.943,1.857,2.931,2.77c1.037,0.96,2.106,1.893,3.149,2.848
	c2.418,2.215,4.852,4.413,7.3,6.602c2.041,1.824,4.089,3.643,6.151,5.45c2.493,2.186,5.009,4.353,7.533,6.513
	c2.06,1.763,4.12,3.524,6.201,5.27c2.593,2.175,5.213,4.326,7.837,6.474c2.059,1.685,4.113,3.375,6.191,5.042
	c2.71,2.175,5.452,4.321,8.194,6.466c2.047,1.601,4.082,3.212,6.146,4.797c2.881,2.211,5.799,4.386,8.715,6.564
	c1.965,1.467,3.913,2.951,5.893,4.403c3.276,2.403,6.596,4.764,9.916,7.125c1.662,1.183,3.304,2.386,4.977,3.559
	c5.017,3.514,10.077,6.986,15.19,10.403c217.531,145.407,472.417,176.58,700.424,112.784
	c170.742-47.765,326.412-148.762,439.999-295.055l0-0.01l0.003-0.004C1818.194,1580.045,1817.8,1579.418,1817.252,1579.494z
	 M1365.76,377.974c0,8.79-5.342,16.348-12.944,19.625l-0.535-0.442h-0.001c-2.125-1.836-4.859-2.986-7.887-2.986
	c-3.278,0-6.241,1.314-8.423,3.428c-7.603-3.277-12.944-10.835-12.944-19.625c0-11.546,9.223-20.928,20.683-21.299l1.13,0.305h0.004
	l1.016-0.227C1356.946,357.522,1365.76,366.695,1365.76,377.974z"/>
<path style="fill:#FDE53D;" d="M1190.63,593.809c-9.132,0-16.536,7.403-16.536,16.536v422.171c0,9.132,7.403,16.536,16.536,16.536
	h307.549c9.133,0,16.536-7.404,16.536-16.536V610.345c0-9.133-7.403-16.536-16.536-16.536H1190.63z"/>
<path style="fill:#FFDA05;" d="M1424.606,1049.047h73.571c9.133,0,16.537-7.404,16.537-16.537V610.339
	c0-9.133-7.404-16.536-16.537-16.536h-73.571V1049.047z"/>
<path style="fill:#F0A500;" d="M1345.899,238.402c-1.093,0.475-2.169,0.977-3.259,1.456l-0.264,111.954
	c-13.566,1.062-24.318,12.315-24.318,26.149c0,10.507,6.223,19.526,15.139,23.757c0.64-1.57,1.596-2.971,2.794-4.132
	c-7.603-3.277-12.944-10.834-12.944-19.625c0-11.547,9.225-20.926,20.686-21.297l1.126,0.303h0.005l1.013-0.225
	c11.092,0.767,19.908,9.939,19.908,21.219c0,8.791-5.341,16.348-12.944,19.625c1.198,1.161,2.155,2.562,2.794,4.132
	c8.915-4.231,15.139-13.25,15.139-23.757c0-13.524-10.276-24.57-23.41-26.057l0.264-112.279c0.002-1.121-0.751-2.037-1.772-2.353
	C1346.357,237.483,1346.415,238.168,1345.899,238.402z"/>
<path style="fill:#FDE649;" d="M1429.983,485.9c-17.375-15.971-40.35-26.79-59.312-41.42c-9.578-7.389-18.249-16.438-23.85-26.319
	l-0.858,0.087c-0.511,0.066-1.017,0.156-1.547,0.156c-0.53,0-1.035-0.089-1.547-0.156l-0.858-0.087
	c-5.602,9.881-14.273,18.93-23.851,26.319c-18.962,14.63-41.937,25.449-59.311,41.42c-26.071,23.964-36.659,59.031-28.28,90.701
	h227.693C1466.642,544.931,1456.053,509.864,1429.983,485.9z"/>
<path style="fill:#F2CE0B;" d="M1294.615,485.9c-15.174,23.964-21.336,59.031-16.46,90.701h132.523
	c4.877-31.669-1.286-66.736-16.46-90.701c-10.113-15.971-23.484-26.79-34.521-41.42c-5.55-7.355-10.473-16.403-13.735-26.232
	c-0.511,0.066-1.017,0.156-1.547,0.156c-0.53,0-1.035-0.089-1.547-0.156c-3.262,9.829-8.185,18.877-13.734,26.232
	C1318.099,459.11,1304.727,469.928,1294.615,485.9z"/>
<path style="fill:#FDC300;" d="M1344.417,394.157c-3.279,0-6.242,1.314-8.425,3.429c-1.198,1.161-2.155,2.562-2.794,4.132
	c-0.574,1.41-0.904,2.946-0.904,4.562c0,5.872,4.176,10.764,9.719,11.88l0.858,0.087c0.512,0.066,1.017,0.156,1.547,0.156
	c0.53,0,1.035-0.089,1.547-0.156l0.858-0.087c5.543-1.116,9.719-6.009,9.719-11.88c0-1.616-0.33-3.152-0.904-4.562
	c-0.639-1.57-1.596-2.971-2.794-4.132C1350.659,395.471,1347.695,394.157,1344.417,394.157z"/>
<path style="fill:#F2B200;" d="M1210.277,576.6c-2.909,0-5.539,1.479-7.436,3.841c-1.644,2.015-2.757,4.691-3.035,7.682
	c-0.051,0.535-0.076,1.039-0.076,1.574c0,1.443,0.236,2.81,0.587,4.112h288.2c0.35-1.3,0.586-2.665,0.586-4.112
	c0-0.535-0.025-1.07-0.076-1.605c-0.632-6.455-5.109-11.492-10.471-11.492H1210.277z"/>
<path style="fill:#F2B200;" d="M1199.73,1056.42c0,0.535,0.025,1.071,0.076,1.606c0.633,6.454,5.109,11.492,10.471,11.492h3.158
	c-0.335,1.208-0.557,2.484-0.557,3.833c0,0.486,0.022,0.973,0.069,1.46c0.575,5.867,4.645,10.447,9.52,10.447h243.9
	c2.644,0,5.036-1.345,6.76-3.492c1.495-1.832,2.506-4.265,2.759-6.984c0.046-0.486,0.069-0.945,0.069-1.431
	c0-1.346-0.223-2.623-0.557-3.833h3.158c2.909,0,5.539-1.48,7.436-3.841c1.644-2.016,2.757-4.691,3.035-7.682
	c0.05-0.535,0.076-1.039,0.076-1.574c0-2.724-0.682-5.26-1.839-7.367h-285.69C1200.412,1051.149,1199.73,1053.684,1199.73,1056.42z"
	/>
<path style="fill:#FFDA05;" d="M1264.2,593.803h-73.571c-9.133,0-16.536,7.404-16.536,16.536v422.171
	c0,9.133,7.403,16.537,16.536,16.537h73.571V593.803z"/>
<path style="fill:#EBBF0A;" d="M1412.091,703.051h-5.764c2.296-8.854-0.163-19.215-5.076-26.682
	c-5.74-8.725-14.181-14.276-22.546-19.172c-8.366-4.897-17.053-9.499-23.93-16.977c-3.62-3.936-6.67-8.889-8.503-14.279
	c-1.833,5.39-4.884,10.342-8.504,14.279c-6.877,7.478-15.564,12.08-23.929,16.977c-8.366,4.896-16.808,10.448-22.547,19.172
	c-4.913,7.468-7.372,17.828-5.076,26.682h-5.763v312.422h131.64V703.051z"/>
<path style="fill:#EBBF0A;" d="M1507.773,703.05h-3.276c1.299-8.844-0.097-19.216-2.903-26.68
	c-3.276-8.723-8.086-14.272-12.855-19.167c-4.782-4.895-9.73-9.499-13.656-16.987c-0.276-0.533-0.539-1.066-0.802-1.623
	c-0.262-0.533-0.511-1.115-0.746-1.696c-0.263-0.582-0.497-1.187-0.719-1.817c-0.235-0.606-0.456-1.211-0.663-1.842v-0.024
	c-0.774-2.278-1.423-4.725-1.921-7.27l-0.014,0.073l-0.014-0.073c-0.497,2.544-1.147,4.992-1.921,7.27v0.024
	c-0.208,0.631-0.429,1.236-0.664,1.842c-0.221,0.63-0.456,1.235-0.719,1.817c-0.235,0.582-0.484,1.163-0.746,1.696
	c-0.263,0.558-0.525,1.091-0.802,1.623c-3.925,7.488-8.873,12.092-13.656,16.987c-4.768,4.895-9.579,10.445-12.855,19.167
	c-2.806,7.464-4.202,17.835-2.903,26.68h-3.276v312.423h75.109V703.05z"/>
<path style="fill:#EBBF0A;" d="M1185.274,703.05h-3.276v312.423h75.108V703.05h-3.276c1.3-8.844-0.096-19.216-2.903-26.68
	c-3.275-8.723-8.086-14.272-12.854-19.167c-4.782-4.895-9.731-9.499-13.656-16.987c-0.276-0.533-0.539-1.066-0.802-1.623
	c-0.263-0.533-0.511-1.115-0.746-1.696c-0.262-0.582-0.498-1.187-0.719-1.817c-0.235-0.606-0.456-1.211-0.664-1.842v-0.024
	c-0.774-2.278-1.423-4.725-1.921-7.27l-0.014,0.073l-0.014-0.073c-0.498,2.544-1.147,4.992-1.921,7.27v0.024
	c-0.208,0.631-0.428,1.236-0.663,1.842c-0.221,0.63-0.456,1.235-0.719,1.817c-0.235,0.582-0.484,1.163-0.746,1.696
	c-0.262,0.558-0.525,1.091-0.802,1.623c-3.925,7.488-8.873,12.092-13.656,16.987c-4.769,4.895-9.579,10.445-12.855,19.167
	C1185.37,683.834,1183.974,694.206,1185.274,703.05z"/>
<path style="fill:#FDC300;" d="M1222.649,1078.382c-3.771,0-7.197-1.373-9.704-3.578c0.575,5.868,4.645,10.447,9.52,10.447h243.9
	c2.645,0,5.036-1.345,6.76-3.492c1.495-1.832,2.507-4.265,2.759-6.984c-2.483,2.233-5.932,3.607-9.704,3.607H1222.649z"/>
<path style="fill:#FFDA05;" d="M1229.934,574.128c0.191,0.825,0.407,1.645,0.624,2.466h0.016
	C1230.357,575.773,1230.125,574.954,1229.934,574.128z"/>
<path style="fill:#FFDA05;" d="M1350.454,429.387c0.382,0.778,0.795,1.526,1.195,2.288c0.858,1.625,1.745,3.214,2.674,4.752
	c0.411,0.682,0.818,1.369,1.242,2.033c1.336,2.091,2.707,4.126,4.132,6.015c6.898,9.143,14.708,16.798,22.064,25.153
	c4.414,5.013,8.665,10.277,12.457,16.267c3.079,4.862,5.787,10.182,8.109,15.838c0.291,0.708,0.545,1.446,0.823,2.164
	c4.27,4.05,8.203,8.301,11.331,13.001c7.836,11.774,11.07,27.279,5.065,40.118c-1.8,3.849-4.506,7.049-7.724,9.803
	c-0.27,3.285-0.647,6.548-1.144,9.777h27.832c1.78-1.929,3.392-4.027,4.617-6.492c6.776-13.628,4.62-30.694-0.291-44.519
	c-5.343-15.041-16.869-28.11-29.52-39.375c-14.281-12.715-30.796-23.482-43.794-37.219c-6.238-6.593-11.596-13.712-16.095-21.241
	l0.011,0.013c-2.479-3.093-4.671-6.312-6.545-9.622l-0.932,0.101C1347.24,422.091,1348.708,425.841,1350.454,429.387z"/>
<path style="fill:#FFDA05;" d="M1228.896,568.855c0.115,0.692,0.228,1.384,0.359,2.074c0.092,0.482,0.205,0.959,0.305,1.439
	C1229.317,571.2,1229.089,570.03,1228.896,568.855z"/>
<path style="fill:#FFDA05;" d="M1227.875,559.503c0.043,0.818,0.102,1.634,0.169,2.451c-0.115-1.424-0.194-2.85-0.238-4.277
	C1227.825,558.286,1227.842,558.895,1227.875,559.503z"/>
<path style="fill:#FFDA05;" d="M1227.818,551.157c-0.035,0.812-0.031,1.626-0.044,2.439c-0.016,1.05-0.025,2.1-0.004,3.15
	c-0.052-2.593,0.029-5.189,0.206-7.78C1227.927,549.695,1227.849,550.425,1227.818,551.157z"/>
<path style="fill:#FFDA05;" d="M1228.956,540.438c-0.142,0.855-0.261,1.712-0.379,2.569c-0.137,1.003-0.285,2.006-0.388,3.011
	c-0.072,0.706-0.098,1.415-0.153,2.123c0.202-2.595,0.5-5.186,0.931-7.762L1228.956,540.438z"/>
<path style="fill:#FFDA05;" d="M1249.96,560.098c8.592,6.253,18.041,11.289,28.036,15.369l-0.096-0.681l-0.179-1.278
	c-0.429-3.288-0.749-6.602-0.946-9.937l0-0.003h0c-0.186-3.14-0.263-6.291-0.247-9.444c-11.599-8.436-21.425-18.589-28.607-30.1
	c-3.05-4.888-5.568-9.905-7.61-15.017c-1.615,2.786-3.071,5.639-4.383,8.539l-0.198,0.425c-0.581,1.301-1.12,2.616-1.639,3.936
	l-0.485,1.271c-1.473,3.912-2.665,7.899-3.588,11.93c-0.154,0.672-0.313,1.344-0.452,2.019c-0.222,1.081-0.417,2.166-0.599,3.252
	C1235.106,547.576,1241.992,554.299,1249.96,560.098z"/>
<path style="fill:#FFDA05;" d="M1228.218,563.786c0.051,0.497,0.081,0.997,0.141,1.493c0.077,0.626,0.188,1.248,0.277,1.871
	c-0.178-1.243-0.33-2.489-0.453-3.737L1228.218,563.786z"/>
<path style="fill:#F5D202;" d="M1369.522,448.989c12.998,13.737,29.513,24.504,43.794,37.219
	c12.651,11.265,24.176,24.334,29.52,39.375c4.911,13.825,7.066,30.891,0.291,44.519c-1.225,2.466-2.838,4.563-4.617,6.492h19.753
	c2.145-8.109,3.088-16.434,2.801-24.745c-0.456-13.173-3.891-26.294-10.067-38.394c-2.059-4.034-4.422-7.953-7.081-11.724
	c-3.989-5.656-8.643-10.975-13.932-15.838c-17.375-15.971-40.349-26.79-59.312-41.419c-1.48-1.142-2.93-2.332-4.356-3.55
	l-1.127-0.995c-1.072-0.941-2.128-1.898-3.159-2.88l-1.076-1.043c-1.076-1.054-2.125-2.129-3.145-3.224l-0.763-0.818
	c-1.249-1.375-2.46-2.772-3.606-4.202l-0.011-0.013C1357.926,435.277,1363.284,442.396,1369.522,448.989z"/>
<path style="fill:#EAC70C;" d="M1347.603,425.471c1.487,15.39,7.112,30.283,14.229,44.669c11.019,22.271,26.359,46.354,18.36,70.74
	c-3.487,10.63-11.571,20.047-23.976,25.816c-11.652,5.419-25.398,7.825-39.004,7.346c-14.851-0.522-27.461-5.456-40.437-10.476h0
	l0,0.003c0.198,3.335,0.517,6.649,0.946,9.937l0.179,1.278l0.12,0.691c0.945,0.386,1.904,0.749,2.859,1.118h129.797
	c0.497-3.229,0.875-6.492,1.144-9.777c1.77-21.574-1.33-43.981-8.672-62.922c-0.278-0.718-0.532-1.456-0.823-2.164
	c-2.321-5.656-5.03-10.975-8.109-15.838c-3.792-5.989-8.043-11.254-12.457-16.267c-7.356-8.355-15.166-16.009-22.064-25.153
	c-1.425-1.889-2.796-3.924-4.132-6.015c-0.423-0.664-0.83-1.351-1.242-2.033c-0.929-1.538-1.816-3.127-2.674-4.752
	c-0.401-0.761-0.813-1.509-1.195-2.288c-1.075-2.186-2.094-4.419-3.003-6.726C1347.504,423.598,1347.513,424.533,1347.603,425.471z"
	/>
<path style="fill:#F2B200;" d="M1355.279,400.99c-0.345-0.707-0.752-1.37-1.222-1.993l-0.025-0.029
	c-0.513-0.666-1.092-1.28-1.729-1.831v0c0.185,0.842,0.298,1.711,0.298,2.609c0,6.695-5.428,12.123-12.123,12.123
	c-3.028,0-5.763-1.15-7.888-2.986l0.019,0.06c0.236,1.05,0.639,2.027,1.127,2.954l0.484,0.892l0.66,0.889l0.694,0.841l0.75,0.723
	l0.903,0.745l0.811,0.556l1.122,0.608l0.821,0.38c0.454,0.18,0.928,0.312,1.408,0.437l0.732,0.196l0.74,0.095
	c0.512,0.066,1.024,0.136,1.554,0.136c0.53,0,1.035-0.09,1.547-0.156l0.932-0.101c5.506-1.144,9.644-6.02,9.644-11.866
	c0-0.892-0.106-1.756-0.292-2.589l-0.14-0.451c-0.184-0.691-0.4-1.37-0.699-2.006L1355.279,400.99z"/>
<path style="fill:#FDCE32;" d="M1347.26,396.241c-1.948-2.116-6.096-1.466-9.267,1.451s-4.162,6.998-2.215,9.115
	c1.947,2.116,6.096,1.466,9.266-1.452C1348.215,402.437,1349.207,398.357,1347.26,396.241z"/>
<path style="fill:#FFE384;" d="M1339.993,397.254c-1.739,1.45-2.466,3.445-1.623,4.456c0.843,1.012,2.937,0.656,4.675-0.793
	c1.739-1.449,2.465-3.444,1.622-4.456S1341.731,395.805,1339.993,397.254z"/>
<path style="fill:#FFE567;" d="M1308.293,483.979c-9.606,15.88-17.083,33.523-14.653,51.234c0.556,4.055,1.652,8.111,3.922,11.715
	c2.27,3.605,5.806,6.742,10.279,8.297c8.202,2.851,18.137-0.312,23.774-6.092s7.567-13.588,7.47-21.072
	c-0.098-7.484-2.021-14.853-3.235-22.268c-2.614-15.964-3.887-31.005-2.981-47.056c0.235-4.163,1.013-10.686,1.56-14.933
	l-0.839-0.201c-3.685,6.117-7.022,12.363-10.984,18.383C1317.796,469.298,1312.8,476.528,1308.293,483.979z"/>
<path style="fill:#FDF4AE;" d="M1311.059,489.576c-6.217,10.277-11.056,21.697-9.484,33.16c0.36,2.624,1.069,5.249,2.539,7.582
	c1.469,2.333,3.758,4.363,6.653,5.37c5.309,1.845,11.739-0.203,15.387-3.943c3.649-3.741,4.898-8.794,4.835-13.639
	c-0.064-4.844-1.308-9.613-2.094-14.412c-1.692-10.332-2.515-20.067-1.929-30.455c0.152-2.695,0.656-6.916,1.009-9.665l-0.543-0.13
	c-2.385,3.959-4.545,8.002-7.109,11.898C1317.209,480.074,1313.976,484.753,1311.059,489.576z"/>
<path style="fill:#F5D202;" d="M1280.88,576.594c-0.955-0.369-1.914-0.732-2.859-1.118l-0.025-0.01
	c-9.995-4.08-19.444-9.116-28.036-15.369c-7.968-5.799-14.854-12.522-20.993-19.72l0,0.001c-0.431,2.576-0.729,5.167-0.931,7.762
	l-0.059,0.823c-0.177,2.591-0.258,5.187-0.206,7.78l0.016,0.571l0.02,0.361c0.044,1.427,0.123,2.853,0.238,4.277
	c0.04,0.487,0.09,0.973,0.138,1.46c0.123,1.248,0.275,2.494,0.453,3.737c0.082,0.569,0.167,1.136,0.26,1.704
	c0.194,1.175,0.421,2.345,0.665,3.513l0.03,0.156c0.113,0.535,0.221,1.07,0.344,1.604c0.191,0.826,0.423,1.645,0.64,2.466H1280.88z"
	/>
<path style="fill:#FDC300;" d="M1210.276,576.594c-2.909,0-5.539,1.48-7.436,3.841c-1.644,2.015-2.757,4.691-3.035,7.682
	c2.732-2.456,6.526-3.967,10.673-3.967h267.874c4.148,0,7.917,1.511,10.674,3.936c-0.633-6.454-5.109-11.492-10.471-11.492H1210.276
	z"/>
<path style="fill:#FDC300;" d="M1210.479,1061.955c-4.148,0-7.917-1.511-10.673-3.935c0.632,6.454,5.109,11.492,10.471,11.492
	h268.279c2.909,0,5.539-1.48,7.436-3.841c1.644-2.015,2.757-4.691,3.035-7.682c-2.732,2.456-6.526,3.967-10.674,3.967H1210.479z"/>
<path style="fill:#DBAF01;" d="M1412.09,915.951c-14.635,4.652-30.406,4.057-45.39-1.281c-16.286-5.801-30.515-16.317-41.896-29.216
	c-20.733-23.501-32.081-54.65-35.794-85.462c-3.685-30.583-0.445-63.023,12.674-91.147c3.01-6.454,6.573-12.658,10.738-18.439
	c5.188-7.201,11.397-13.571,16.416-20.907c5.66-8.273,10.134-17.362,12.644-27.092c0.794-3.076,1.213-6.14,1.427-9.201
	c-1.49,2.545-3.216,4.904-5.115,6.974l-0.027,0.034c-1.719,1.869-3.552,3.559-5.464,5.119c-1.912,1.56-3.904,2.989-5.943,4.338
	c-4.077,2.697-8.34,5.072-12.523,7.52c-8.366,4.897-16.807,10.448-22.547,19.173c-4.913,7.468-7.372,17.828-5.076,26.682h-5.764
	v312.422h131.64V915.951z"/>
<path style="fill:#DBAF01;" d="M1445.578,703.044h3.276c-1.299-8.844,0.097-19.216,2.903-26.679
	c3.276-8.723,8.086-14.273,12.855-19.167c4.157-4.255,8.437-8.294,12.063-14.194c-0.546-0.888-1.079-1.814-1.592-2.793
	c-0.276-0.533-0.539-1.066-0.802-1.624c-0.262-0.533-0.511-1.115-0.746-1.696c-0.262-0.582-0.497-1.187-0.719-1.818
	c-0.235-0.606-0.456-1.211-0.663-1.841v-0.024c-0.774-2.278-1.423-4.726-1.921-7.27l-0.014,0.072l-0.014-0.072
	c-0.498,2.544-1.147,4.992-1.921,7.27v0.024c-0.208,0.63-0.429,1.235-0.664,1.841c-0.222,0.631-0.456,1.236-0.719,1.818
	c-0.235,0.581-0.484,1.163-0.746,1.696c-0.262,0.557-0.525,1.091-0.801,1.624c-0.981,1.871-2.027,3.563-3.118,5.124
	c-3.272,4.683-6.952,8.191-10.539,11.862c-1.788,1.836-3.582,3.763-5.299,5.915c-1.145,1.435-2.255,2.97-3.306,4.644
	c-1.051,1.674-2.043,3.488-2.953,5.48c-0.454,0.996-0.888,2.037-1.297,3.128c-0.701,1.866-1.315,3.914-1.82,6.074
	c-1.516,6.48-2.057,13.972-1.083,20.606h-3.276v312.423h12.916V703.044z"/>
<path style="fill:#DBAF01;" d="M1198.188,703.044c-1.3-8.844,0.097-19.216,2.903-26.679c3.276-8.723,8.086-14.273,12.855-19.167
	c4.156-4.255,8.437-8.294,12.063-14.194c-0.546-0.888-1.079-1.814-1.593-2.793c-0.276-0.533-0.539-1.066-0.802-1.624
	c-0.263-0.533-0.511-1.115-0.746-1.696c-0.262-0.582-0.497-1.187-0.719-1.818c-0.234-0.606-0.456-1.211-0.664-1.841v-0.024
	c-0.774-2.278-1.423-4.726-1.921-7.27l-0.014,0.072l-0.014-0.072c-0.498,2.544-1.147,4.992-1.922,7.27v0.024
	c-0.207,0.63-0.428,1.235-0.664,1.841c-0.221,0.631-0.456,1.236-0.718,1.818c-0.235,0.581-0.484,1.163-0.746,1.696
	c-0.263,0.558-0.525,1.091-0.802,1.624c-3.925,7.488-8.874,12.091-13.656,16.987c-1.788,1.836-3.583,3.763-5.299,5.915
	c-1.144,1.435-2.255,2.97-3.306,4.644c-1.051,1.674-2.043,3.488-2.953,5.48c-0.454,0.996-0.887,2.037-1.297,3.128
	c-0.701,1.866-1.315,3.914-1.82,6.074c-1.516,6.48-2.057,13.972-1.083,20.606h-3.276v312.423h12.916V703.044H1198.188z"/>
<path style="fill:#FFE969;" d="M814.17,755.777c43.568-214.43,189.007-408.078,384.46-506.304c0.235-1.178,0.354-1.979,0.354-1.979
	s0.01,0.686,0.097,1.752c2.927-1.469,5.828-2.988,8.779-4.413c-80.803,4.096-161.913,15.186-238.09,42.443
	c-16.124,5.769-32.007,12.346-47.552,19.648c0.743,0.888,1.561,1.675,2.494,2.275c8.489,5.407,24.454,9.091,24.454,9.091
	s-18.844,1.667-24.607,8.711c-5.756,7.059-9.084,24.438-9.084,24.438s-2.717-19.903-8.721-24.575
	c-2.636-2.072-7.708-4.091-12.551-5.701c-46.872,25.698-89.412,58.926-123.188,100.2c-51.24,62.613-77.263,122.56-59.711,201.54
	C723.692,678.656,767.076,728.302,814.17,755.777z"/>
<path style="fill:#FFD140;" d="M1696.872,1599.296c-2.301,0.203-4.611,0.481-6.91,0.664c-0.892,0.071-1.782,0.123-2.674,0.191
	c-8.22,0.625-16.426,1.131-24.613,1.497c-0.534,0.024-1.071,0.06-1.605,0.083c-8.444,0.361-16.866,0.563-25.269,0.653
	c-1.007,0.011-2.016,0.03-3.023,0.037c-8.297,0.056-16.571-0.021-24.822-0.225c-0.946-0.024-1.892-0.049-2.837-0.076
	c-8.468-0.24-16.913-0.6-25.325-1.112l-1.169-0.077c-26.844-1.672-53.392-4.705-79.542-9.063l-0.054-0.009
	c-43.995-7.335-86.872-18.386-128.171-32.877l0.049,0.033c-164.651-57.757-304.2-170.216-389.357-319.967
	c-266.465-201.607-391.988-546.548-310.916-875.924c-81.811,56.109-154.56,127.403-213.843,212.325l0.04-0.25
	c-2.396,3.43-4.726,6.927-7.078,10.402c-1.328,1.962-2.682,3.897-3.996,5.872c-4.712,7.089-9.317,14.282-13.842,21.552
	c-1.329,2.135-2.627,4.3-3.94,6.451c-3.645,5.973-7.225,12.006-10.741,18.098c-1.112,1.927-2.238,3.842-3.337,5.781
	c-4.483,7.91-8.867,15.908-13.129,24.015c-0.535,1.018-1.048,2.057-1.58,3.079c-3.836,7.37-7.568,14.829-11.217,22.36
	c-0.842,1.737-1.685,3.473-2.516,5.219c-4.072,8.549-8.067,17.161-11.891,25.913c-11.198,25.629-20.97,51.58-29.443,77.748
	c-35.657,239.473,31.649,490.926,200.278,682.461c176.994,201.037,422.56,296.435,664.793,288.464
	c0.681-6.954,0.225-13.039,0.225-13.039s1.51,6.585,4.697,12.873c169.918-6.575,337.957-64.007,479.28-171.64
	c0.464-0.353,0.235-1.079-0.329-1.129C1694.331,1599.572,1695.604,1599.407,1696.872,1599.296z"/>
<path style="fill:#FDC321;" d="M1817.275,1579.475l-0.063-0.005c-5.441,1.329-10.906,2.611-16.402,3.833
	c-4.689,1.042-9.372,1.914-14.059,2.867c-3.528,0.717-7.058,1.49-10.585,2.158c-0.887,0.168-1.776,0.378-2.663,0.543
	c-0.488,0.091-0.975,0.157-1.463,0.247c-5.937,1.094-11.867,2.05-17.797,3.005c-2.573,0.414-5.151,0.906-7.723,1.294l-1.337,0.18
	c-7.318,1.092-14.627,2.056-21.929,2.942c-1.209,0.147-2.422,0.337-3.63,0.478c-7.596,0.887-15.177,1.612-22.75,2.28
	c-2.301,0.203-4.611,0.481-6.91,0.664c-0.892,0.071-1.782,0.123-2.674,0.191c-8.22,0.625-16.426,1.131-24.613,1.497
	c-0.534,0.024-1.071,0.06-1.605,0.083c-8.444,0.361-16.866,0.563-25.269,0.653c-1.007,0.011-2.016,0.03-3.023,0.037
	c-8.297,0.056-16.571-0.021-24.822-0.225c-0.946-0.024-1.892-0.049-2.837-0.076c-8.468-0.24-16.913-0.6-25.325-1.112l-1.169-0.077
	c-26.844-1.672-53.392-4.705-79.542-9.063l-0.054-0.009c-43.995-7.335-86.872-18.386-128.171-32.877l0.049,0.033l1.017,0.673
	c0.504,0.326,0.31,1.11-0.287,1.168c-430.555,41.514-839.109-253.176-915.224-704.389c-16.05-95.139-15.246-189.924,0.378-281.019
	l0.04-0.25c-2.396,3.43-4.726,6.927-7.078,10.402c-1.328,1.962-2.682,3.897-3.996,5.872c-4.712,7.089-9.317,14.282-13.842,21.552
	c-1.329,2.135-2.627,4.3-3.94,6.451c-3.645,5.973-7.225,12.006-10.741,18.098c-1.112,1.927-2.238,3.842-3.337,5.781
	c-4.483,7.91-8.867,15.908-13.129,24.015c-0.535,1.018-1.048,2.057-1.58,3.079c-3.836,7.37-7.568,14.829-11.217,22.36
	c-0.842,1.737-1.685,3.473-2.516,5.219c-4.072,8.549-8.067,17.161-11.891,25.913c-11.198,25.629-20.97,51.58-29.443,77.748v-0.001
	l-0.001,0.005c-21.498,66.398-34.306,134.239-38.86,202.038l-0.035,0.506c-0.362,5.448-0.671,10.896-0.926,16.342l-0.038,0.828
	c-0.248,5.4-0.446,10.798-0.59,16.194l-0.021,0.838c-0.14,5.435-0.232,10.868-0.266,16.298l-0.001,0.496
	c-0.11,18.785,0.413,37.537,1.549,56.226c1.919,31.568,5.598,62.954,11,94.003l0.139,0.817c0.862,4.925,1.779,9.838,2.728,14.746
	c0.15,0.776,0.294,1.554,0.445,2.33c0.904,4.606,1.855,9.202,2.834,13.792c0.227,1.061,0.449,2.121,0.679,3.181
	c0.958,4.406,1.956,8.801,2.984,13.191c0.286,1.224,0.573,2.448,0.865,3.67c1.019,4.27,2.073,8.531,3.158,12.783l0.004,0.018
	c0.334,1.308,0.672,2.614,1.012,3.92l0.008,0.027c1.091,4.189,2.208,8.37,3.362,12.541l0.01,0.039
	c0.361,1.306,0.732,2.609,1.1,3.913l0.018,0.065c1.175,4.168,2.372,8.329,3.611,12.479l0.017,0.058
	c0.366,1.226,0.744,2.448,1.116,3.672l0.043,0.14c1.273,4.193,2.564,8.38,3.902,12.552l0.026,0.084
	c0.341,1.064,0.697,2.123,1.043,3.187l0.088,0.265c1.395,4.286,2.805,8.567,4.268,12.83l0.032,0.096
	c0.241,0.701,0.494,1.397,0.736,2.097l0.169,0.476c1.577,4.547,3.173,9.088,4.828,13.609l0.124,0.33
	c0.414,1.129,0.855,2.247,1.273,3.374c0.42,1.131,0.853,2.257,1.278,3.387c1.749,4.647,3.537,9.28,5.368,13.896
	c0.653,1.647,1.308,3.294,1.971,4.937c0.563,1.394,1.102,2.799,1.672,4.19c4.043,9.857,8.273,19.641,12.683,29.349l0.513,1.149
	c0.284,0.624,0.557,1.253,0.843,1.875l0.074,0.158c1.671,3.639,3.394,7.255,5.117,10.871l0.359,0.763
	c0.636,1.331,1.257,2.669,1.9,3.996l0.094,0.189c1.612,3.326,3.266,6.633,4.922,9.939l0.298,0.604
	c0.822,1.637,1.632,3.278,2.464,4.91l0.119,0.227c0.582,1.14,1.183,2.271,1.773,3.407c1.028,1.981,2.051,3.965,3.09,5.941
	l0.258,0.495c0.954,1.812,1.905,3.626,2.873,5.432l0.14,0.257c1.609,2.999,3.246,5.983,4.892,8.963l0.225,0.413
	c1.048,1.896,2.097,3.791,3.161,5.679l0.17,0.297c0.874,1.551,1.767,3.092,2.652,4.637c0.771,1.346,1.534,2.698,2.311,4.041
	l0.201,0.35c1.132,1.952,2.271,3.901,3.419,5.844l0.198,0.33c0.606,1.024,1.225,2.041,1.834,3.063
	c1.066,1.786,2.126,3.575,3.207,5.354l0.176,0.294c1.21,1.992,2.434,3.977,3.661,5.959l0.239,0.382l0.195,0.31
	c1.63,2.628,3.266,5.252,4.926,7.864l0.164,0.26c1.274,2.003,2.566,3.995,3.858,5.988l0.301,0.46
	c1.721,2.652,3.444,5.302,5.197,7.937l0.152,0.231c1.339,2.011,2.702,4.007,4.058,6.007l0.391,0.571
	c1.741,2.563,3.478,5.129,5.249,7.675l0.14,0.204c1.387,1.993,2.804,3.968,4.21,5.95l0.52,0.728
	c1.767,2.486,3.522,4.978,5.317,7.447l0.124,0.174c1.407,1.935,2.849,3.848,4.274,5.771l0.787,1.057
	c0.424,0.57,0.851,1.139,1.274,1.711c1.337,1.807,2.669,3.617,4.03,5.408l0.114,0.154c1.376,1.81,2.789,3.596,4.181,5.396
	c0.522,0.676,1.048,1.349,1.572,2.023c1.65,2.122,3.275,4.26,4.947,6.366c3.513,4.427,7.073,8.822,10.682,13.185l0.098,0.121
	l0.101,0.119c0.877,1.06,1.774,2.107,2.666,3.156c0.676,0.795,1.348,1.594,2.02,2.392c0.379,0.45,0.759,0.899,1.138,1.348
	c1.851,2.188,3.684,4.388,5.558,6.559l0.098,0.111c1.722,1.992,3.482,3.957,5.224,5.934l0.534,0.607
	c1.974,2.237,3.935,4.482,5.935,6.699l0.1,0.109c1.817,2.014,3.667,4.003,5.505,6.001l0.32,0.35
	c2.053,2.231,4.101,4.465,6.182,6.676l0.092,0.096l0.691,0.723c1.655,1.747,3.323,3.484,4.991,5.222l0.189,0.198
	c2.151,2.239,4.301,4.477,6.48,6.695l0.078,0.078l0.07,0.07c1.901,1.934,3.825,3.851,5.747,5.769l0.103,0.104
	c2.238,2.232,4.481,4.46,6.747,6.67l0.056,0.054c1.972,1.922,3.96,3.829,5.952,5.734l0.039,0.038
	c2.329,2.226,4.67,4.443,7.029,6.646l0.024,0.022c2.008,1.875,4.027,3.739,6.056,5.596c2.418,2.214,4.853,4.413,7.3,6.601
	c2.042,1.825,4.089,3.644,6.15,5.451c2.494,2.186,5.01,4.352,7.533,6.513c2.06,1.762,4.12,3.524,6.2,5.269
	c2.593,2.175,5.214,4.326,7.837,6.474c2.059,1.685,4.112,3.375,6.19,5.042c2.711,2.175,5.452,4.321,8.194,6.466
	c2.047,1.601,4.082,3.212,6.147,4.796c2.881,2.211,5.799,4.386,8.715,6.565c1.965,1.468,3.913,2.95,5.893,4.403
	c3.277,2.403,6.597,4.764,9.916,7.125c1.663,1.183,3.304,2.386,4.977,3.559c5.017,3.514,10.077,6.986,15.19,10.404
	c217.531,145.406,472.417,176.579,700.423,112.784c170.737-47.772,326.408-148.775,439.999-295.065l0.004-0.004
	C1818.217,1580.026,1817.823,1579.399,1817.275,1579.475z M1227.692,1801.507c-4.379,8.579-3.948,27.286-3.948,27.286
	s-7.241-19.97-14.489-23.462c-7.22-3.523-27.299-3.983-27.299-3.983s18.141-4.931,23.488-14.471
	c2.213-3.958,3.264-9.329,3.748-14.266c0.681-6.954,0.225-13.039,0.225-13.039s1.51,6.585,4.697,12.873
	c2.332,4.602,5.557,9.046,9.771,10.624c9.979,3.698,27.304,3.952,27.304,3.952S1232.079,1792.942,1227.692,1801.507z"/>
<path style="fill:#F3A60F;" d="M1817.275,1579.475l-0.063-0.005c-5.441,1.329-10.906,2.611-16.402,3.833
	c-4.689,1.042-9.372,1.914-14.059,2.867c-3.528,0.717-7.058,1.49-10.585,2.158c-0.887,0.168-1.776,0.378-2.663,0.543
	c-0.488,0.091-0.975,0.157-1.463,0.247c-5.937,1.094-11.867,2.05-17.797,3.005c-2.573,0.414-5.151,0.906-7.723,1.294l-1.337,0.18
	c-7.318,1.092-14.627,2.056-21.929,2.942c-1.209,0.147-2.422,0.337-3.63,0.478c-7.596,0.887-15.177,1.612-22.75,2.28
	c-1.268,0.112-2.54,0.276-3.808,0.382c0.564,0.05,0.793,0.776,0.329,1.129c-141.323,107.632-309.362,165.065-479.28,171.64
	c2.332,4.602,5.557,9.046,9.771,10.624c9.979,3.698,27.304,3.952,27.304,3.952s-19.109,5.92-23.497,14.485
	c-4.379,8.579-3.948,27.286-3.948,27.286s-7.241-19.97-14.489-23.462c-7.22-3.523-27.299-3.983-27.299-3.983
	s18.141-4.931,23.488-14.471c2.213-3.958,3.264-9.329,3.748-14.266c-242.233,7.971-487.799-87.427-664.793-288.464
	C375.77,1292.613,308.464,1041.16,344.12,801.687v-0.001l-0.001,0.005c-21.498,66.398-34.306,134.239-38.86,202.038l-0.035,0.506
	c-0.362,5.448-0.671,10.896-0.926,16.342l-0.038,0.828c-0.248,5.4-0.446,10.798-0.59,16.194l-0.021,0.838
	c-0.14,5.435-0.232,10.868-0.266,16.298l-0.001,0.496c-0.11,18.785,0.413,37.537,1.549,56.226c1.919,31.568,5.598,62.954,11,94.003
	l0.139,0.817c0.862,4.925,1.779,9.838,2.728,14.746c0.15,0.776,0.294,1.554,0.445,2.33c0.904,4.606,1.855,9.202,2.834,13.792
	c0.227,1.061,0.449,2.121,0.679,3.181c0.958,4.406,1.956,8.801,2.984,13.191c0.286,1.224,0.573,2.448,0.865,3.67
	c1.019,4.27,2.073,8.531,3.158,12.783l0.004,0.018c0.334,1.308,0.672,2.614,1.012,3.92l0.008,0.027
	c1.091,4.189,2.208,8.37,3.362,12.541l0.01,0.039c0.361,1.306,0.732,2.609,1.1,3.913l0.018,0.065
	c1.175,4.168,2.372,8.329,3.611,12.479l0.017,0.058c0.366,1.226,0.744,2.448,1.116,3.672l0.043,0.14
	c1.273,4.193,2.564,8.38,3.902,12.552l0.026,0.084c0.341,1.064,0.697,2.123,1.043,3.187l0.088,0.265
	c1.395,4.286,2.805,8.567,4.268,12.83l0.032,0.096c0.241,0.701,0.494,1.397,0.736,2.097l0.169,0.476
	c1.577,4.547,3.173,9.088,4.828,13.609l0.124,0.33c0.414,1.129,0.855,2.247,1.273,3.374c0.42,1.131,0.853,2.257,1.278,3.387
	c1.749,4.647,3.537,9.28,5.368,13.896c0.653,1.647,1.308,3.294,1.971,4.937c0.563,1.394,1.102,2.799,1.672,4.19
	c4.043,9.857,8.273,19.641,12.683,29.349l0.513,1.149c0.284,0.624,0.557,1.253,0.843,1.875l0.074,0.158
	c1.671,3.639,3.394,7.255,5.117,10.871l0.359,0.763c0.636,1.331,1.257,2.669,1.9,3.996l0.094,0.189
	c1.612,3.326,3.266,6.633,4.922,9.939l0.298,0.604c0.822,1.637,1.632,3.278,2.464,4.91l0.119,0.227
	c0.582,1.14,1.183,2.271,1.773,3.407c1.028,1.981,2.051,3.965,3.09,5.941l0.258,0.495c0.954,1.812,1.905,3.626,2.873,5.432
	l0.14,0.257c1.609,2.999,3.246,5.983,4.892,8.963l0.225,0.413c1.048,1.896,2.097,3.791,3.161,5.679l0.17,0.297
	c0.874,1.551,1.767,3.092,2.652,4.637c0.771,1.346,1.534,2.698,2.311,4.041l0.201,0.35c1.132,1.952,2.271,3.901,3.419,5.844
	l0.198,0.33c0.606,1.024,1.225,2.041,1.834,3.063c1.066,1.786,2.126,3.575,3.207,5.354l0.176,0.294
	c1.21,1.992,2.434,3.977,3.661,5.959l0.239,0.382l0.195,0.31c1.63,2.628,3.266,5.252,4.926,7.864l0.164,0.26
	c1.274,2.003,2.566,3.995,3.858,5.988l0.301,0.46c1.721,2.652,3.444,5.302,5.197,7.937l0.152,0.231
	c1.339,2.011,2.702,4.007,4.058,6.007l0.391,0.571c1.741,2.563,3.478,5.129,5.249,7.675l0.14,0.204
	c1.387,1.993,2.804,3.968,4.21,5.95l0.52,0.728c1.767,2.486,3.522,4.978,5.317,7.447l0.124,0.174
	c1.407,1.935,2.849,3.848,4.274,5.771l0.787,1.057c0.424,0.57,0.851,1.139,1.274,1.711c1.337,1.807,2.669,3.617,4.03,5.408
	l0.114,0.154c1.376,1.81,2.789,3.596,4.181,5.396c0.522,0.676,1.048,1.349,1.572,2.023c1.65,2.122,3.275,4.26,4.947,6.366
	c3.513,4.427,7.073,8.822,10.682,13.185l0.098,0.121l0.101,0.119c0.877,1.06,1.774,2.107,2.666,3.156
	c0.676,0.795,1.348,1.594,2.02,2.392c0.379,0.45,0.759,0.899,1.138,1.348c1.851,2.188,3.684,4.388,5.558,6.559l0.098,0.111
	c1.722,1.992,3.482,3.957,5.224,5.934l0.534,0.607c1.974,2.237,3.935,4.482,5.935,6.699l0.1,0.109
	c1.817,2.014,3.667,4.003,5.505,6.001l0.32,0.35c2.053,2.231,4.101,4.465,6.182,6.676l0.092,0.096l0.691,0.723
	c1.655,1.747,3.323,3.484,4.991,5.222l0.189,0.198c2.151,2.239,4.301,4.477,6.48,6.695l0.078,0.078l0.07,0.07
	c1.901,1.934,3.825,3.851,5.747,5.769l0.103,0.104c2.238,2.232,4.481,4.46,6.747,6.67l0.056,0.054
	c1.972,1.922,3.96,3.829,5.952,5.734l0.039,0.038c2.329,2.226,4.67,4.443,7.029,6.646l0.024,0.022
	c2.008,1.875,4.027,3.739,6.056,5.596c2.418,2.214,4.853,4.413,7.3,6.601c2.042,1.825,4.089,3.644,6.15,5.451
	c2.494,2.186,5.01,4.352,7.533,6.513c2.06,1.762,4.12,3.524,6.2,5.269c2.593,2.175,5.214,4.326,7.837,6.474
	c2.059,1.685,4.112,3.375,6.19,5.042c2.711,2.175,5.452,4.321,8.194,6.466c2.047,1.601,4.082,3.212,6.147,4.796
	c2.881,2.211,5.799,4.386,8.715,6.565c1.965,1.468,3.913,2.95,5.893,4.403c3.277,2.403,6.597,4.764,9.916,7.125
	c1.663,1.183,3.304,2.386,4.977,3.559c5.017,3.514,10.077,6.986,15.19,10.404c217.531,145.406,472.417,176.579,700.423,112.784
	c170.737-47.772,326.408-148.775,439.999-295.065l0.004-0.004C1818.217,1580.026,1817.823,1579.399,1817.275,1579.475z"/>
<path style="fill:#FFFFFF;" d="M915.474,351.439c0,0,3.328-17.379,9.084-24.438c5.763-7.044,24.607-8.711,24.607-8.711
	s-15.965-3.685-24.454-9.091c-0.933-0.599-1.75-1.387-2.494-2.275c-6.01-7.175-6.201-22.329-6.201-22.329s-2.284,16.697-9.111,24.45
	c-6.843,7.754-24.596,8.699-24.596,8.699s5.763,1.382,11.891,3.419c4.843,1.61,9.915,3.629,12.551,5.701
	C912.758,331.536,915.474,351.439,915.474,351.439z"/>
<path style="fill:#FFFFFF;" d="M539.704,729.756c0,0,3.328-17.379,9.085-24.438c5.762-7.044,24.607-8.711,24.607-8.711
	s-15.965-3.685-24.454-9.091c-8.473-5.439-8.694-24.603-8.694-24.603s-2.284,16.697-9.112,24.45
	c-6.843,7.754-24.595,8.699-24.595,8.699s18.47,4.425,24.443,9.119C536.988,709.853,539.704,729.756,539.704,729.756z"/>
<path style="fill:#FFFFFF;" d="M794.968,803.181c-6.193-3.975-6.354-17.982-6.354-17.982s-1.669,12.204-6.659,17.871
	c-5.001,5.667-17.976,6.358-17.976,6.358s13.499,3.234,17.865,6.665c4.389,3.415,6.374,17.962,6.374,17.962
	s2.433-12.702,6.64-17.861c4.212-5.148,17.985-6.367,17.985-6.367S801.172,807.132,794.968,803.181z"/>
<path style="fill:#FFFFFF;" d="M883.643,372.237c0,0,1.206-6.296,3.291-8.853c2.087-2.552,8.914-3.156,8.914-3.156
	s-5.784-1.335-8.859-3.294c-3.07-1.97-3.15-8.913-3.15-8.913s-0.828,6.049-3.301,8.858c-2.479,2.809-8.91,3.152-8.91,3.152
	s6.691,1.603,8.854,3.303C882.659,365.026,883.643,372.237,883.643,372.237z"/>
<path style="fill:#FFFFFF;" d="M597.774,1326.09c0,0,1.87-9.764,5.104-13.729c3.237-3.957,13.824-4.894,13.824-4.894
	s-8.969-2.07-13.738-5.107c-4.76-3.055-4.885-13.822-4.885-13.822s-1.283,9.38-5.119,13.736c-3.844,4.355-13.817,4.887-13.817,4.887
	s10.376,2.485,13.731,5.123C596.249,1314.908,597.774,1326.09,597.774,1326.09z"/>
<path style="fill:#FFFFFF;" d="M809.784,832.487c0,0-0.605,4.421-2.413,6.474c-1.812,2.053-6.512,2.303-6.512,2.303
	s4.89,1.172,6.472,2.415c1.59,1.237,2.309,6.507,2.309,6.507s0.881-4.601,2.405-6.471c1.526-1.865,6.516-2.306,6.516-2.306
	s-4.228-0.976-6.475-2.408C809.842,837.561,809.784,832.487,809.784,832.487z"/>
<path style="fill:#FFFFFF;" d="M796.074,1210.264c8.473,5.438,8.694,24.603,8.694,24.603s2.284-16.697,9.111-24.45
	c6.843-7.754,24.595-8.699,24.595-8.699s-18.47-4.425-24.443-9.12c-6.005-4.672-8.721-24.575-8.721-24.575
	s-3.328,17.38-9.085,24.438c-5.762,7.045-24.607,8.711-24.607,8.711S787.585,1204.857,796.074,1210.264z"/>
<path style="fill:#FFFFFF;" d="M775.804,1170.167c0,0,0.827-6.049,3.301-8.858c2.479-2.809,8.91-3.152,8.91-3.152
	s-6.691-1.603-8.855-3.303c-2.175-1.693-3.16-8.903-3.16-8.903s-1.205,6.296-3.291,8.853c-2.087,2.552-8.914,3.156-8.914,3.156
	s5.784,1.335,8.859,3.294C775.723,1163.224,775.804,1170.167,775.804,1170.167z"/>
<path style="fill:#FFFFFF;" d="M968.109,1617.156c0,0,3.328-17.38,9.085-24.438c5.762-7.044,24.607-8.711,24.607-8.711
	s-15.965-3.685-24.454-9.092c-8.474-5.439-8.695-24.603-8.695-24.603s-2.283,16.697-9.111,24.45
	c-6.843,7.754-24.596,8.698-24.596,8.698s18.47,4.425,24.443,9.119C965.392,1597.253,968.109,1617.156,968.109,1617.156z"/>
<path style="fill:#FFFFFF;" d="M997.617,1615.013c0,0-0.828,6.049-3.301,8.858c-2.479,2.809-8.91,3.151-8.91,3.151
	s6.691,1.603,8.855,3.304c2.175,1.693,3.16,8.903,3.16,8.903s1.206-6.296,3.291-8.853c2.088-2.552,8.914-3.155,8.914-3.155
	s-5.784-1.335-8.859-3.294C997.697,1621.955,997.617,1615.013,997.617,1615.013z"/>
<path style="fill:#FFFFFF;" d="M572.837,660.115c0,0,1.206-6.296,3.291-8.853c2.087-2.552,8.914-3.156,8.914-3.156
	s-5.784-1.335-8.859-3.293c-3.069-1.97-3.15-8.913-3.15-8.913s-0.827,6.049-3.3,8.858c-2.48,2.808-8.911,3.151-8.911,3.151
	s6.691,1.603,8.855,3.304C571.853,652.904,572.837,660.115,572.837,660.115z"/>
<path style="fill:#FFFFFF;" d="M389.827,1046.799c0,0,1.852-9.671,5.055-13.599c3.206-3.919,13.692-4.847,13.692-4.847
	s-8.884-2.051-13.607-5.059c-4.715-3.026-4.838-13.69-4.838-13.69s-1.271,9.291-5.07,13.606c-3.808,4.315-13.686,4.84-13.686,4.84
	s10.278,2.462,13.601,5.074C388.315,1035.724,389.827,1046.799,389.827,1046.799z"/>
<path style="fill:#FFFFFF;" d="M1198.631,249.473c-0.591,2.958-1.999,8.541-4.716,11.626c-3.808,4.315-13.686,4.84-13.686,4.84
	s10.277,2.463,13.601,5.075c3.341,2.599,4.853,13.675,4.853,13.675s1.852-9.671,5.055-13.599c3.206-3.919,13.692-4.847,13.692-4.847
	s-8.884-2.05-13.608-5.059c-3.524-2.262-4.481-8.784-4.741-11.938c-0.088-1.067-0.097-1.752-0.097-1.752
	S1198.866,248.295,1198.631,249.473z"/>
<path style="fill:#FFFFFF;" d="M744.666,1701.565c0,0-1.304,9.536-5.204,13.964c-3.908,4.428-14.047,4.968-14.047,4.968
	s10.549,2.527,13.96,5.208c3.429,2.668,4.981,14.036,4.981,14.036s1.901-9.926,5.189-13.957c3.291-4.023,14.054-4.975,14.054-4.975
	s-9.118-2.104-13.967-5.193C744.793,1712.51,744.666,1701.565,744.666,1701.565z"/>
<path style="fill:#FFFFFF;" d="M1209.191,1772.612c-0.483,4.936-1.535,10.307-3.748,14.266c-5.347,9.54-23.488,14.471-23.488,14.471
	s20.079,0.46,27.299,3.983c7.248,3.492,14.489,23.462,14.489,23.462s-0.431-18.707,3.948-27.286
	c4.388-8.565,23.497-14.485,23.497-14.485s-17.325-0.253-27.304-3.952c-4.214-1.578-7.439-6.022-9.771-10.624
	c-3.187-6.287-4.697-12.873-4.697-12.873S1209.872,1765.658,1209.191,1772.612z"/>
<path style="fill:#FFFFFF;" d="M1466.084,1686.323c0,0,2.645-13.813,7.22-19.422c4.58-5.599,19.557-6.923,19.557-6.923
	s-12.689-2.929-19.435-7.226c-6.735-4.323-6.91-19.554-6.91-19.554s-1.815,13.27-7.242,19.432
	c-5.438,6.162-19.548,6.914-19.548,6.914s14.68,3.517,19.426,7.248C1463.925,1670.504,1466.084,1686.323,1466.084,1686.323z"/>
</svg>
