<?xml version="1.0" encoding="utf-8"?>
<!-- Generator: Adobe Illustrator 27.5.0, SVG Export Plug-In . SVG Version: 6.00 Build 0)  -->
<svg version="1.1" xmlns="http://www.w3.org/2000/svg" xmlns:xlink="http://www.w3.org/1999/xlink" x="0px" y="0px"
	 viewBox="0 0 1870 2407" style="enable-background:new 0 0 1870 2407;" xml:space="preserve">
<g id="Capa_3">
</g>
<g id="Capa_4">
	<g>
		<path style="fill:#FAB95B;" d="M1548.77,930.605h0.017c0,0-93.239-183.736-337.347-359.922
			c-39.613-28.588-83.186-56.979-130.995-84.315l-0.041-0.041c-36.457-20.854-75.343-41.118-116.814-60.444
			c59.856-13.094,104.918-66.244,105.564-129.809v-1.367c0-74.051-60.257-134.26-134.267-134.26
			c-74.051,0-134.267,60.209-134.267,134.26c0,47.564,24.909,89.484,62.331,113.331c13.049,8.317,27.622,14.435,43.198,17.841
			c-33.454,15.569-65.195,31.795-95.374,48.415c-357.12,196.938-488.71,454.193-489.781,456.297h-0.02L581.684,2039.64h0.146
			l-0.139,0.007c0,0,106.285,145.939,353.175,206.631c1.571-0.408,3.109-0.768,4.686-1.169
			c30.404-7.632,58.631-16.596,84.757-26.411c183.376-68.691,263.773-179.05,263.773-179.05l-0.143-0.007h0.122L1548.77,930.605z
			 M498.546,1267.633c9.849-29.322,32.057-68.773,81.73-109.155c0,0,60.216,15.232,113.895,74.135l86.927,767.686l-110.427-0.58
			L498.546,1267.633z M760.782,1288.793c19.786-31.743,65.861-85.328,166.895-130.315c0,0,119.167,24.432,179.941,131.117
			l-80.523,710.826h-185.75L760.782,1288.793z M1088.647,2000.299l86.645-765.157c54.23-60.999,116.225-76.663,116.225-76.663
			c46.476,37.879,68.97,74.867,79.669,103.536l-173.381,737.711L1088.647,2000.299z M876.728,357.676
			c-0.068-0.065-0.136-0.129-0.207-0.194c-0.218-0.204-0.439-0.408-0.656-0.615c-0.109-0.103-0.217-0.208-0.323-0.313
			c-0.177-0.165-0.347-0.331-0.52-0.5c-0.122-0.12-0.245-0.241-0.367-0.362c-0.163-0.159-0.323-0.319-0.486-0.48
			c-0.122-0.126-0.248-0.251-0.374-0.379c-0.17-0.17-0.337-0.342-0.503-0.515l-0.306-0.316c-0.183-0.19-0.367-0.384-0.547-0.576
			c-0.099-0.106-0.201-0.212-0.299-0.318c-0.255-0.274-0.51-0.549-0.762-0.827c-0.126-0.138-0.251-0.279-0.378-0.418
			c-0.139-0.157-0.279-0.314-0.418-0.471c-0.133-0.147-0.258-0.295-0.388-0.443c-0.132-0.15-0.262-0.301-0.391-0.452
			c-0.129-0.147-0.251-0.293-0.378-0.441c-0.136-0.16-0.272-0.321-0.408-0.483c-0.126-0.153-0.255-0.306-0.381-0.461
			c-0.112-0.138-0.227-0.276-0.34-0.415c-0.136-0.166-0.272-0.333-0.405-0.501c-0.123-0.153-0.245-0.308-0.367-0.463
			c-0.123-0.155-0.245-0.31-0.367-0.466c-0.157-0.203-0.313-0.406-0.469-0.609c-0.17-0.222-0.337-0.445-0.504-0.669
			c-0.139-0.184-0.279-0.37-0.415-0.555c-0.136-0.182-0.265-0.366-0.401-0.549c-0.095-0.135-0.194-0.269-0.292-0.405
			c-0.126-0.178-0.252-0.357-0.378-0.535c-0.102-0.146-0.204-0.29-0.306-0.436c-0.136-0.195-0.272-0.393-0.405-0.591
			c-0.078-0.11-0.153-0.222-0.228-0.332c-0.146-0.214-0.289-0.428-0.432-0.644c-0.071-0.108-0.139-0.215-0.211-0.323
			c-0.146-0.22-0.289-0.441-0.432-0.662c-0.058-0.091-0.115-0.182-0.174-0.274c-0.52-0.815-1.027-1.638-1.52-2.471
			c-0.027-0.049-0.058-0.097-0.086-0.144c-0.139-0.233-0.272-0.468-0.408-0.703c-0.068-0.116-0.136-0.233-0.2-0.349
			c-0.129-0.228-0.259-0.456-0.384-0.685c-0.058-0.1-0.112-0.199-0.17-0.299c-0.136-0.252-0.276-0.503-0.411-0.757
			c-0.041-0.078-0.086-0.156-0.126-0.234c-0.136-0.258-0.275-0.516-0.411-0.776c-0.044-0.084-0.085-0.168-0.129-0.252
			c-0.633-1.218-1.234-2.454-1.81-3.705c-0.02-0.046-0.041-0.09-0.061-0.136c-0.129-0.281-0.255-0.565-0.381-0.847
			c-0.031-0.073-0.065-0.147-0.099-0.22c-0.122-0.285-0.248-0.572-0.371-0.858c-0.027-0.062-0.051-0.124-0.078-0.186
			c-0.122-0.292-0.245-0.583-0.367-0.877c-0.024-0.058-0.048-0.117-0.071-0.176c-0.67-1.643-1.292-3.313-1.86-5.006
			c-0.024-0.064-0.044-0.127-0.065-0.191c-0.099-0.294-0.197-0.589-0.292-0.885c-0.024-0.074-0.048-0.148-0.072-0.224
			c-0.099-0.308-0.193-0.619-0.289-0.928c-0.014-0.043-0.027-0.086-0.037-0.129c-0.102-0.332-0.204-0.666-0.299-0.999
			c-0.003-0.007-0.003-0.014-0.007-0.02c-0.415-1.433-0.796-2.882-1.139-4.345c-0.003-0.013-0.007-0.024-0.01-0.036
			c-0.078-0.335-0.153-0.672-0.228-1.009c-0.01-0.05-0.024-0.101-0.034-0.152c-0.071-0.323-0.139-0.646-0.207-0.971
			c-0.013-0.062-0.024-0.124-0.037-0.185c-0.068-0.33-0.133-0.661-0.198-0.992c-0.007-0.03-0.014-0.062-0.017-0.092
			c-0.354-1.841-0.646-3.701-0.877-5.582c-0.003-0.019-0.003-0.04-0.007-0.059c-0.044-0.351-0.085-0.703-0.122-1.055
			c-0.007-0.048-0.01-0.097-0.017-0.145c-0.037-0.342-0.071-0.684-0.106-1.027c-0.003-0.052-0.007-0.103-0.013-0.153
			c-0.214-2.274-0.34-4.571-0.37-6.891c-0.003-0.02-0.003-0.041-0.003-0.061c-0.004-0.368-0.007-0.737-0.007-1.108v-0.087
			c0-0.612,0.011-1.226,0.021-1.84c0.003-0.126,0.007-0.251,0.01-0.376c0.017-0.569,0.034-1.141,0.061-1.713
			c0-0.029,0.003-0.059,0.003-0.089c0.119-2.573,0.347-5.168,0.7-7.783c2.258-16.762,9.499-32.011,20.13-44.249l0.037-0.041
			c0.384-0.445,0.775-0.885,1.173-1.322c0.099-0.112,0.2-0.224,0.303-0.336c0.282-0.308,0.564-0.611,0.85-0.914
			c0.197-0.207,0.391-0.416,0.588-0.622c0.105-0.112,0.218-0.223,0.327-0.335c6.792-6.994,14.756-12.841,23.544-17.219
			c0.177-0.087,0.35-0.175,0.527-0.26c0.303-0.149,0.612-0.295,0.921-0.442c0.316-0.151,0.636-0.301,0.956-0.447
			c0.227-0.105,0.456-0.208,0.687-0.311c0.445-0.2,0.898-0.398,1.351-0.592c0.112-0.049,0.227-0.098,0.343-0.147
			c7.833-3.317,16.236-5.495,24.987-6.318c0.551-0.053,1.102-0.095,1.653-0.136c0.007-0.001,0.014-0.002,0.02-0.002
			c0.619-0.047,1.238-0.085,1.853-0.118c0.14-0.008,0.279-0.017,0.418-0.025c0.548-0.027,1.095-0.045,1.646-0.062
			c0.181-0.006,0.364-0.015,0.544-0.019c0.605-0.015,1.214-0.021,1.823-0.023c0.113,0,0.225-0.003,0.333-0.003
			c0.429,0,0.854,0.008,1.282,0.015c0.259,0.003,0.517,0.003,0.775,0.01c0.367,0.008,0.731,0.025,1.099,0.038
			c0.316,0.011,0.636,0.02,0.952,0.036c0.34,0.016,0.68,0.039,1.024,0.059c0.33,0.02,0.663,0.038,0.996,0.061
			c0.35,0.025,0.704,0.057,1.055,0.086c0.312,0.026,0.629,0.051,0.938,0.08c0.35,0.034,0.697,0.071,1.048,0.109
			c0.319,0.035,0.642,0.068,0.962,0.106c0.333,0.04,0.667,0.085,0.996,0.127c0.333,0.043,0.663,0.087,0.993,0.134
			c0.32,0.045,0.639,0.096,0.959,0.145c0.337,0.051,0.673,0.102,1.01,0.158c0.323,0.054,0.646,0.112,0.966,0.17
			c0.33,0.058,0.657,0.117,0.983,0.179c0.323,0.061,0.643,0.126,0.963,0.191c0.327,0.065,0.649,0.132,0.972,0.2
			c0.32,0.069,0.636,0.14,0.956,0.212c0.326,0.075,0.653,0.15,0.979,0.228c0.306,0.073,0.612,0.148,0.915,0.224
			c0.33,0.084,0.66,0.167,0.99,0.255c0.306,0.08,0.612,0.164,0.915,0.247c0.327,0.09,0.653,0.182,0.979,0.276
			c0.296,0.085,0.592,0.173,0.884,0.261c0.333,0.1,0.667,0.201,0.997,0.305c0.286,0.09,0.571,0.181,0.857,0.274
			c0.34,0.11,0.677,0.222,1.013,0.337c0.279,0.093,0.551,0.188,0.83,0.285c0.336,0.12,0.676,0.241,1.013,0.365
			c0.265,0.097,0.53,0.194,0.796,0.294c0.344,0.128,0.684,0.26,1.023,0.393c0.266,0.104,0.531,0.208,0.796,0.315
			c0.337,0.135,0.67,0.273,1.004,0.412c0.262,0.109,0.524,0.22,0.782,0.332c0.333,0.143,0.666,0.289,0.996,0.437
			c0.255,0.113,0.511,0.226,0.762,0.342c0.34,0.154,0.677,0.312,1.01,0.471c0.248,0.115,0.493,0.232,0.738,0.35
			c0.34,0.165,0.677,0.333,1.017,0.501c0.231,0.117,0.466,0.232,0.697,0.35c0.35,0.18,0.697,0.362,1.04,0.546
			c0.221,0.116,0.439,0.232,0.656,0.349c0.357,0.192,0.708,0.388,1.061,0.585c0.208,0.116,0.415,0.231,0.623,0.349
			c0.367,0.21,0.731,0.424,1.099,0.639c0.18,0.107,0.36,0.213,0.541,0.32c0.378,0.225,0.748,0.455,1.119,0.686
			c0.177,0.109,0.354,0.217,0.53,0.328c0.381,0.24,0.759,0.487,1.136,0.732c0.153,0.101,0.31,0.2,0.466,0.303
			c0.425,0.281,0.843,0.566,1.262,0.855c0.105,0.071,0.211,0.141,0.316,0.214c0.496,0.345,0.989,0.696,1.479,1.052
			c0.024,0.018,0.052,0.035,0.075,0.053c2.088,1.519,4.105,3.13,6.043,4.827c0.013,0.012,0.028,0.025,0.041,0.037
			c0.469,0.41,0.935,0.825,1.391,1.245c0.041,0.035,0.078,0.071,0.115,0.106c0.432,0.396,0.86,0.796,1.282,1.201
			c0.069,0.064,0.133,0.131,0.201,0.195c0.395,0.378,0.786,0.759,1.17,1.145c0.078,0.077,0.156,0.158,0.234,0.236
			c0.371,0.376,0.745,0.755,1.109,1.137c0.082,0.084,0.16,0.171,0.242,0.256c0.357,0.376,0.714,0.755,1.064,1.138
			c0.095,0.105,0.191,0.212,0.289,0.318c0.33,0.365,0.657,0.731,0.983,1.1c0.103,0.117,0.204,0.237,0.306,0.355
			c0.32,0.369,0.64,0.74,0.952,1.116c0.092,0.109,0.18,0.219,0.272,0.328c0.32,0.386,0.64,0.774,0.952,1.167
			c0.085,0.108,0.17,0.216,0.255,0.323c0.31,0.389,0.612,0.779,0.915,1.173c0.099,0.128,0.194,0.256,0.289,0.385
			c0.293,0.383,0.578,0.767,0.86,1.155c0.095,0.129,0.187,0.258,0.279,0.385c0.286,0.393,0.564,0.787,0.843,1.185
			c0.092,0.131,0.18,0.261,0.272,0.395c0.268,0.393,0.537,0.789,0.803,1.187c0.092,0.138,0.18,0.275,0.272,0.413
			c0.265,0.405,0.528,0.811,0.786,1.219l0.245,0.39c0.265,0.43,0.53,0.86,0.792,1.293c0.061,0.105,0.126,0.209,0.187,0.314
			c0.269,0.453,0.534,0.908,0.796,1.366l0.174,0.306c0.262,0.464,0.52,0.93,0.771,1.398c0.055,0.098,0.106,0.196,0.16,0.295
			c0.251,0.473,0.5,0.949,0.745,1.426c0.051,0.097,0.098,0.194,0.149,0.291c0.252,0.495,0.497,0.993,0.738,1.493
			c0.034,0.074,0.071,0.148,0.105,0.222c0.255,0.528,0.5,1.06,0.741,1.593c0.024,0.051,0.048,0.103,0.071,0.155
			c0.252,0.556,0.496,1.117,0.738,1.68c0.014,0.031,0.024,0.059,0.037,0.09c2.296,5.411,4.051,11.103,5.2,17.01
			c0.01,0.053,0.024,0.105,0.034,0.16c0.238,1.228,0.449,2.464,0.632,3.71c0.572,4.061,0.878,8.244,0.878,12.475
			c0,47.299-38.478,85.777-85.777,85.777c-21.949,0-42.048-8.325-57.258-21.99C877.327,358.224,877.027,357.951,876.728,357.676z"/>
		<g>
			<path style="fill:#FFDC73;" d="M524.87,722.199c-44.817,60.914-77.03,133.705-83.604,208.392h344.452
				c-38.957-69.307-42.61-159.733-19.283-237.715c17.65-58.917,48.177-112.821,82.988-163.182
				c23.589-34.166,61.134-66.541,86.025-100.724c-0.187,0-0.374,0.003-0.561,0.003c-9.863,0-19.477-1.069-28.738-3.095
				c-33.454,15.569-65.195,31.795-95.374,48.415c-22.779,15.665-45.388,31.656-67.84,47.851
				C662.612,580.137,583.589,642.401,524.87,722.199z"/>
			<g>
				<path style="fill:#F19D44;" d="M1548.77,930.605l0.003-0.013H1405.99c-0.942-6.821-2.319-13.59-3.87-20.215
					c-29.642-128.091-105.271-237.81-190.681-339.694c-39.613-28.588-83.186-56.979-130.995-84.315
					c95.987,90.008,163.705,210.426,188.457,339.769c4.768,24.956,7.835,51.768-2.462,74.99
					c-6.394,14.397-14.93,23.308-24.681,29.465H320.973L581.684,2039.64h0.146l-0.139,0.007c0,0,106.285,145.939,353.175,206.631
					c1.571-0.408,3.109-0.768,4.686-1.169c30.404-7.632,58.631-16.596,84.757-26.411c183.376-68.691,263.773-179.05,263.773-179.05
					l-0.143-0.007h0.122L1548.77,930.605z M1291.517,1158.478c46.476,37.879,68.97,74.867,79.669,103.536l-173.381,737.711
					l-109.158,0.573l86.645-765.157C1229.522,1174.142,1291.517,1158.478,1291.517,1158.478z M760.782,1288.793
					c19.786-31.743,65.861-85.328,166.895-130.315c0,0,119.167,24.432,179.941,131.117l-80.523,710.826h-185.75L760.782,1288.793z
					 M781.099,2000.299l-110.427-0.58l-172.126-732.086c9.849-29.322,32.057-68.773,81.73-109.155c0,0,60.216,15.232,113.895,74.135
					L781.099,2000.299z"/>
				<path style="fill:#F19D44;" d="M989.232,393.361c-27.989,16.133-63.209,19.086-93.531,7.842
					c-9.788-3.612-31.077-8.55-32.751,6.836c13.049,8.317,27.622,14.435,43.198,17.841c9.261,2.026,18.875,3.095,28.738,3.095
					c0.187,0,0.374-0.003,0.561-0.003c9.652-0.04,19.069-1.104,28.142-3.088c59.856-13.094,104.918-66.244,105.564-129.809
					c-0.748-1.585-1.769-2.904-3.177-3.966c-5.421-4.054-13.706-0.707-17.453,4.938c-3.788,5.639-4.408,12.693-5.598,19.392
					C1037.457,348.265,1017.229,377.227,989.232,393.361z"/>
				<path style="fill:#F19D44;" d="M864.407,361.93c4.095,1.061,8.944,1.013,11.984-1.939l1.238-1.497
					c-0.302-0.271-0.602-0.544-0.901-0.82c-0.068-0.065-0.136-0.129-0.207-0.194c-0.218-0.204-0.439-0.408-0.656-0.615
					c-0.109-0.103-0.217-0.208-0.323-0.313c-0.177-0.165-0.347-0.331-0.52-0.5c-0.122-0.12-0.245-0.241-0.367-0.362
					c-0.163-0.159-0.323-0.319-0.486-0.48c-0.122-0.126-0.248-0.251-0.374-0.379c-0.17-0.17-0.337-0.342-0.503-0.515l-0.306-0.316
					c-0.183-0.19-0.367-0.384-0.547-0.576c-0.099-0.106-0.201-0.212-0.299-0.318c-0.255-0.274-0.51-0.549-0.762-0.827
					c-0.126-0.138-0.251-0.279-0.378-0.418c-0.139-0.157-0.279-0.314-0.418-0.471c-0.133-0.147-0.258-0.295-0.388-0.443
					c-0.132-0.15-0.262-0.301-0.391-0.452c-0.129-0.147-0.251-0.293-0.378-0.441c-0.136-0.16-0.272-0.321-0.408-0.483
					c-0.126-0.153-0.255-0.306-0.381-0.461c-0.112-0.138-0.227-0.276-0.34-0.415c-0.136-0.166-0.272-0.333-0.405-0.501
					c-0.123-0.153-0.245-0.308-0.367-0.463c-0.123-0.155-0.245-0.31-0.367-0.466c-0.157-0.203-0.313-0.406-0.469-0.609
					c-0.17-0.222-0.337-0.445-0.504-0.669c-0.139-0.184-0.279-0.37-0.415-0.555c-0.136-0.182-0.265-0.366-0.401-0.549
					c-0.095-0.135-0.194-0.269-0.292-0.405c-0.126-0.178-0.252-0.357-0.378-0.535c-0.102-0.146-0.204-0.29-0.306-0.436
					c-0.136-0.195-0.272-0.393-0.405-0.591c-0.078-0.11-0.153-0.222-0.228-0.332c-0.146-0.214-0.289-0.428-0.432-0.644
					c-0.071-0.108-0.139-0.215-0.211-0.323c-0.146-0.22-0.289-0.441-0.432-0.662c-0.058-0.091-0.115-0.182-0.174-0.274
					c-0.52-0.815-1.027-1.638-1.52-2.471c-0.027-0.049-0.058-0.097-0.086-0.144c-0.139-0.233-0.272-0.468-0.408-0.703
					c-0.068-0.116-0.136-0.233-0.2-0.349c-0.129-0.228-0.259-0.456-0.384-0.685c-0.058-0.1-0.112-0.199-0.17-0.299
					c-0.136-0.252-0.276-0.503-0.411-0.757c-0.041-0.078-0.086-0.156-0.126-0.234c-0.136-0.258-0.275-0.516-0.411-0.776
					c-0.044-0.084-0.085-0.168-0.129-0.252c-0.633-1.218-1.234-2.454-1.81-3.705c-0.02-0.046-0.041-0.09-0.061-0.136
					c-0.129-0.281-0.255-0.565-0.381-0.847c-0.031-0.073-0.065-0.147-0.099-0.22c-0.122-0.285-0.248-0.572-0.371-0.858
					c-0.027-0.062-0.051-0.124-0.078-0.186c-0.122-0.292-0.245-0.583-0.367-0.877c-0.024-0.058-0.048-0.117-0.071-0.176
					c-0.67-1.643-1.292-3.313-1.86-5.006c-0.024-0.064-0.044-0.127-0.065-0.191c-0.099-0.294-0.197-0.589-0.292-0.885
					c-0.024-0.074-0.048-0.148-0.072-0.224c-0.099-0.308-0.193-0.619-0.289-0.928c-0.014-0.043-0.027-0.086-0.037-0.129
					c-0.102-0.332-0.204-0.666-0.299-0.999c-0.003-0.007-0.003-0.014-0.007-0.02c-0.415-1.433-0.796-2.882-1.139-4.345
					c-0.003-0.013-0.007-0.024-0.01-0.036c-0.078-0.335-0.153-0.672-0.228-1.009c-0.01-0.05-0.024-0.101-0.034-0.152
					c-0.071-0.323-0.139-0.646-0.207-0.971c-0.013-0.062-0.024-0.124-0.037-0.185c-0.068-0.33-0.133-0.661-0.198-0.992
					c-0.007-0.03-0.014-0.062-0.017-0.092c-0.354-1.841-0.646-3.701-0.877-5.582c-0.003-0.019-0.003-0.04-0.007-0.059
					c-0.044-0.351-0.085-0.703-0.122-1.055c-0.007-0.048-0.01-0.097-0.017-0.145c-0.037-0.342-0.071-0.684-0.106-1.027
					c-0.003-0.052-0.007-0.103-0.013-0.153c-0.214-2.274-0.34-4.571-0.37-6.891c-0.003-0.02-0.003-0.041-0.003-0.061
					c-0.004-0.368-0.007-0.737-0.007-1.108v-0.087c0-0.612,0.011-1.226,0.021-1.84c0.003-0.126,0.007-0.251,0.01-0.376
					c0.017-0.569,0.034-1.141,0.061-1.713c0-0.029,0.003-0.059,0.003-0.089c0.119-2.573,0.347-5.168,0.7-7.783
					c2.258-16.762,9.499-32.011,20.13-44.249l0.037-0.041c0.384-0.445,0.775-0.885,1.173-1.322c0.099-0.112,0.2-0.224,0.303-0.336
					c0.282-0.308,0.564-0.611,0.85-0.914c0.197-0.207,0.391-0.416,0.588-0.622c0.105-0.112,0.218-0.223,0.327-0.335
					c6.792-6.994,14.756-12.841,23.544-17.219c0.177-0.087,0.35-0.175,0.527-0.26c0.303-0.149,0.612-0.295,0.921-0.442
					c0.316-0.151,0.636-0.301,0.956-0.447c0.227-0.105,0.456-0.208,0.687-0.311c0.445-0.2,0.898-0.398,1.351-0.592
					c0.112-0.049,0.227-0.098,0.343-0.147c7.833-3.317,16.236-5.495,24.987-6.318c0.551-0.053,1.102-0.095,1.653-0.136
					c0.007-0.001,0.014-0.002,0.02-0.002c0.619-0.047,1.238-0.085,1.853-0.118c0.14-0.008,0.279-0.017,0.418-0.025
					c0.548-0.027,1.095-0.045,1.646-0.062c0.181-0.006,0.364-0.015,0.544-0.019c0.605-0.015,1.214-0.021,1.823-0.023
					c0.113,0,0.225-0.003,0.333-0.003c0.429,0,0.854,0.008,1.282,0.015c0.259,0.003,0.517,0.003,0.775,0.01
					c0.367,0.008,0.731,0.025,1.099,0.038c0.316,0.011,0.636,0.02,0.952,0.036c0.34,0.016,0.68,0.039,1.024,0.059
					c0.33,0.02,0.663,0.038,0.996,0.061c0.35,0.025,0.704,0.057,1.055,0.086c0.312,0.026,0.629,0.051,0.938,0.08
					c0.35,0.034,0.697,0.071,1.048,0.109c0.319,0.035,0.642,0.068,0.962,0.106c0.333,0.04,0.667,0.085,0.996,0.127
					c0.333,0.043,0.663,0.087,0.993,0.134c0.32,0.045,0.639,0.096,0.959,0.145c0.337,0.051,0.673,0.102,1.01,0.158
					c0.323,0.054,0.646,0.112,0.966,0.17c0.33,0.058,0.657,0.117,0.983,0.179c0.323,0.061,0.643,0.126,0.963,0.191
					c0.327,0.065,0.649,0.132,0.972,0.2c0.32,0.069,0.636,0.14,0.956,0.212c0.326,0.075,0.653,0.15,0.979,0.228
					c0.306,0.073,0.612,0.148,0.915,0.224c0.33,0.084,0.66,0.167,0.99,0.255c0.306,0.08,0.612,0.164,0.915,0.247
					c0.327,0.09,0.653,0.182,0.979,0.276c0.296,0.085,0.592,0.173,0.884,0.261c0.333,0.1,0.667,0.201,0.997,0.305
					c0.286,0.09,0.571,0.181,0.857,0.274c0.34,0.11,0.677,0.222,1.013,0.337c0.279,0.093,0.551,0.188,0.83,0.285
					c0.336,0.12,0.676,0.241,1.013,0.365c0.265,0.097,0.53,0.194,0.796,0.294c0.344,0.128,0.684,0.26,1.023,0.393
					c0.266,0.104,0.531,0.208,0.796,0.315c0.337,0.135,0.67,0.273,1.004,0.412c0.262,0.109,0.524,0.22,0.782,0.332
					c0.333,0.143,0.666,0.289,0.996,0.437c0.255,0.113,0.511,0.226,0.762,0.342c0.34,0.154,0.677,0.312,1.01,0.471
					c0.248,0.115,0.493,0.232,0.738,0.35c0.34,0.165,0.677,0.333,1.017,0.501c0.231,0.117,0.466,0.232,0.697,0.35
					c0.35,0.18,0.697,0.362,1.04,0.546c0.221,0.116,0.439,0.232,0.656,0.349c0.357,0.192,0.708,0.388,1.061,0.585
					c0.208,0.116,0.415,0.231,0.623,0.349c0.367,0.21,0.731,0.424,1.099,0.639c0.18,0.107,0.36,0.213,0.541,0.32
					c0.378,0.225,0.748,0.455,1.119,0.686c0.177,0.109,0.354,0.217,0.53,0.328c0.381,0.24,0.759,0.487,1.136,0.732
					c0.153,0.101,0.31,0.2,0.466,0.303c0.425,0.281,0.843,0.566,1.262,0.855c0.105,0.071,0.211,0.141,0.316,0.214
					c0.496,0.345,0.989,0.696,1.479,1.052c0.024,0.018,0.052,0.035,0.075,0.053c2.088,1.519,4.105,3.13,6.043,4.827
					c0.013,0.012,0.028,0.025,0.041,0.037c0.469,0.41,0.935,0.825,1.391,1.245c0.041,0.035,0.078,0.071,0.115,0.106
					c0.432,0.396,0.86,0.796,1.282,1.201c0.069,0.064,0.133,0.131,0.201,0.195c0.395,0.378,0.786,0.759,1.17,1.145
					c0.078,0.077,0.156,0.158,0.234,0.236c0.371,0.376,0.745,0.755,1.109,1.137c0.082,0.084,0.16,0.171,0.242,0.256
					c0.357,0.376,0.714,0.755,1.064,1.138c0.095,0.105,0.191,0.212,0.289,0.318c0.33,0.365,0.657,0.731,0.983,1.1
					c0.103,0.117,0.204,0.237,0.306,0.355c0.32,0.369,0.64,0.74,0.952,1.116c0.092,0.109,0.18,0.219,0.272,0.328
					c0.32,0.386,0.64,0.774,0.952,1.167c0.085,0.108,0.17,0.216,0.255,0.323c0.31,0.389,0.612,0.779,0.915,1.173
					c0.099,0.128,0.194,0.256,0.289,0.385c0.293,0.383,0.578,0.767,0.86,1.155c0.095,0.129,0.187,0.258,0.279,0.385
					c0.286,0.393,0.564,0.787,0.843,1.185c0.092,0.131,0.18,0.261,0.272,0.395c0.268,0.393,0.537,0.789,0.803,1.187
					c0.092,0.138,0.18,0.275,0.272,0.413c0.265,0.405,0.528,0.811,0.786,1.219l0.245,0.39c0.265,0.43,0.53,0.86,0.792,1.293
					c0.061,0.105,0.126,0.209,0.187,0.314c0.269,0.453,0.534,0.908,0.796,1.366l0.174,0.306c0.262,0.464,0.52,0.93,0.771,1.398
					c0.055,0.098,0.106,0.196,0.16,0.295c0.251,0.473,0.5,0.949,0.745,1.426c0.051,0.097,0.098,0.194,0.149,0.291
					c0.252,0.495,0.497,0.993,0.738,1.493c0.034,0.074,0.071,0.148,0.105,0.222c0.255,0.528,0.5,1.06,0.741,1.593
					c0.024,0.051,0.048,0.103,0.071,0.155c0.252,0.556,0.496,1.117,0.738,1.68c0.014,0.031,0.024,0.059,0.037,0.09
					c2.296,5.411,4.051,11.103,5.2,17.01c0.01,0.053,0.024,0.105,0.034,0.16c0.646,3.06,2.513,5.878,5.435,6.996
					c0.884,0.333,1.809,0.537,2.775,0.551c7.761,0.137,10.271-10.488,9.346-18.201c-3.265-26.758-14.549-53.557-37.553-67.616
					c-22.97-14.066-50.87-19.929-77.54-16.27c-30.322,4.142-62.678,21.378-79.206,47.83c-19.133,30.587-21.289,71.099-5.509,103.536
					C842.628,347.211,851.62,358.672,864.407,361.93z"/>
			</g>
			<g>
				<path style="fill:#E18D33;" d="M974.725,2209.691c13.121-26.65,8.801-59.645-5.938-85.41
					c-14.78-25.799-38.804-45.144-64.528-60.005c-15.25-8.813-31.227-16.226-47.272-23.48H785.69l-0.014-0.088l-203.846-1.068
					l-0.139,0.007c0,0,106.285,145.939,353.175,206.631c1.571-0.408,3.109-0.768,4.686-1.169
					C950.252,2232.348,970.97,2217.281,974.725,2209.691z"/>
				<path style="fill:#E18D33;" d="M1155.148,2132.845c-39.41,28.309-83.349,49.87-122.194,78.907
					c-2.422,1.816-5.373,4.196-8.646,6.945c183.376-68.691,263.773-179.05,263.773-179.05l-0.143-0.007l-51.728,0.271
					C1220.129,2077.779,1188.895,2108.622,1155.148,2132.845z"/>
				<path style="fill:#D68329;" d="M1155.148,2132.845c33.746-24.223,64.98-55.065,81.063-92.934l-152.142,0.797l-0.014,0.088
					h-227.07c16.045,7.254,32.022,14.666,47.272,23.48c25.724,14.862,49.748,34.206,64.528,60.005
					c14.739,25.765,19.059,58.76,5.938,85.41c-3.754,7.59-24.473,22.656-35.172,35.417c30.404-7.632,58.631-16.596,84.757-26.411
					c3.272-2.748,6.224-5.129,8.646-6.945C1071.799,2182.715,1115.739,2161.154,1155.148,2132.845z"/>
				<path style="fill:#B06C22;" d="M580.277,1158.478c0,0,60.216,15.232,113.895,74.135l-13.42-118.516
					c-50.163-81.27-118.391-118.507-153.886-133.306c-14.587-6.083-23.646-8.375-23.646-8.375
					c-4.295,3.493-8.414,6.98-12.379,10.459c-51.918,45.54-76.126,89.405-87.267,122.632l210.141,893.915l56.958,0.297
					l-172.126-732.086C508.395,1238.311,530.603,1198.86,580.277,1158.478z"/>
				<path style="fill:#B06C22;" d="M1370.573,972.416c0,0-111.889,28.268-182.512,149.945l-12.77,112.781
					c54.23-60.999,116.225-76.663,116.225-76.663c46.476,37.879,68.97,74.867,79.669,103.536l-173.381,737.711l58.227-0.304
					l211.753-900.772C1454.698,1063.723,1427.314,1018.572,1370.573,972.416z"/>
				<path style="fill:#B06C22;" d="M926.928,972.416c-123.254,54.829-179.457,120.235-203.59,158.883l98.414,869.123h19.592
					l-80.563-711.628c19.786-31.743,65.861-85.328,166.895-130.315c0,0,119.167,24.432,179.941,131.117l-80.523,710.826h20.899
					l98.299-868.096C1072.201,1002.208,926.928,972.416,926.928,972.416z"/>
			</g>
		</g>
	</g>
</g>
</svg>
